# Alias OBJ Model File
# Exported from SketchUp, (c) 2000-2012 Trimble Navigation Limited
# File units = meters

mtllib new_hole.mtl

g Mesh1 Model

usemtl FrontColor
v 1.28013 0 -6.10213
vt -50.3988 240.241
vn 0 -1 -0
v 2.48013 0 -6.10213
vt -97.6429 240.241
v 2.48013 0 5.35787
vt -97.6429 -210.94
v 1.28013 0 5.35787
vt -50.3988 -210.94
f 1/1/1 2/2/1 3/3/1 4/4/1 

vt -97.6429 0
vn 0 0 -1
vt -50.3988 0
v 1.28013 1.22 -6.10213
vt -50.3988 48.0315
v 2.48013 1.22 -6.10213
vt -97.6429 48.0315
f 2/5/2 1/6/2 5/7/2 6/8/2 

vt -240.241 0
vn -1 0 -0
vt 210.94 0
v 1.28013 1.22 5.35787
vt 210.94 48.0315
vt -240.241 48.0315
f 1/9/3 4/10/3 7/11/3 5/12/3 

vt 50.3988 0
vn 0 0 1
v 1.36522 0.0886196 5.35787
vt 53.7489 3.48896
vt 50.3988 48.0315
f 4/13/4 8/14/4 7/15/4

v 2.38522 0.0886196 5.35787
vt 93.9064 3.48896
f 8/14/4 4/13/4 9/16/4

vt 97.6429 0
f 3/17/4 9/16/4 4/13/4

v 2.48013 1.22 5.35787
vt 97.6429 48.0315
f 9/16/4 3/17/4 10/18/4

vt -210.94 0
vn 1 0 -0
vt 240.241 0
vt 240.241 48.0315
vt -210.94 48.0315
f 3/19/5 2/20/5 6/21/5 10/22/5 

vt 97.6429 240.241
vn 0 1 -0
vt 50.3988 240.241
vt 50.3988 -210.94
vt 97.6429 -210.94
f 6/23/6 5/24/6 7/25/6 10/26/6 

v 1.36522 1.10862 5.35787
vt 53.7489 43.6464
f 7/15/4 11/27/4 10/18/4

f 7/15/4 8/14/4 11/27/4

vt -210.94 43.6464
vt -210.94 3.48896
v 1.36522 0.0886196 -5.73213
vt 225.674 3.48896
v 1.36522 1.10862 -5.73213
vt 225.674 43.6464
f 11/28/5 8/29/5 12/30/5 13/31/5 

vt 53.7489 -210.94
vt 93.9064 -210.94
v 2.38522 0.0886196 -5.73213
vt 93.9064 225.674
vt 53.7489 225.674
f 8/32/6 9/33/6 14/34/6 12/35/6 

vt 210.94 3.48896
v 2.38522 1.10862 5.35787
vt 210.94 43.6464
v 2.38522 1.10862 -5.73213
vt -225.674 43.6464
vt -225.674 3.48896
f 9/36/3 15/37/3 16/38/3 14/39/3 

vt 93.9064 43.6464
f 9/16/4 10/18/4 15/40/4

f 15/40/4 10/18/4 11/27/4

vt -93.9064 -210.94
vt -53.7489 -210.94
vt -53.7489 225.674
vt -93.9064 225.674
f 15/41/1 11/42/1 13/43/1 16/44/1 

f 16/40/4 13/27/4 12/14/4 14/16/4 

